# xmcd CD database file
# Copyright (C) 1997 Ti Kan
# 
# Track frame offsets:
#     183
#     20295
#     41220
#     57720
#     73870
#     91958
#     109745
#     122395
#     140983
#     152308
# 
# Disc length: 2224 seconds
# 
# Revision: 1
# Processed by: cddbd v1.4b41PL1 Copyright (c) Steve Scherf et al.
# Submitted via: DiscPlay 4.0.0
# 
DISCID=8a08ae0a
DTITLE=Tommy Tutone - Nervous Love
DYEAR=1900
DGENRE=
TTITLE0=A Long Time Ago
TTITLE1=Once You Start Walking
TTITLE2=I Wake Up In Heaven
TTITLE3=Another Slow Dance
TTITLE4=Our Special Place
TTITLE5=Marincy, Arizona
TTITLE6=Nervous Love
TTITLE7=Mr. Hold Up Man
TTITLE8=The Far Side Of The Bed
TTITLE9=Reach Out and Touch Her
EXTD=
EXTT0=
EXTT1=
EXTT2=
EXTT3=
EXTT4=
EXTT5=
EXTT6=
EXTT7=
EXTT8=
EXTT9=
PLAYORDER=
